HIERARCHY
ROOT hip
{
	OFFSET 0.000000 0.000000 0.000000 
	CHANNELS 6 Xposition Yposition Zposition Xrotation Zrotation Yrotation
	JOINT abdomen
	{
		OFFSET 0.000000 3.402643 0.000000 
		CHANNELS 3 Xrotation Zrotation Yrotation
		JOINT chest
		{
			OFFSET 0.000000 8.438565 -0.680529 
			CHANNELS 3 Xrotation Zrotation Yrotation
			JOINT neck
			{
				OFFSET 0.000000 10.207942 -0.272212 
				CHANNELS 3 Xrotation Zrotation Yrotation
				JOINT head
				{
					OFFSET 0.000000 3.130431 0.000000 
					CHANNELS 3 Xrotation Zrotation Yrotation
					End Site
					{
						OFFSET 0.000000 3.130435 0.000000 
					}
				}
			}
			JOINT lCollar
			{
				OFFSET 3.470700 6.669187 -0.816635 
				CHANNELS 3 Yrotation Zrotation Xrotation
				JOINT lShldr
				{
					OFFSET 3.198488 0.000000 0.000000 
					CHANNELS 3 Zrotation Yrotation Xrotation
					JOINT lForeArm
					{
						OFFSET 10.139888 0.000000 0.000000 
						CHANNELS 3 Yrotation Zrotation Xrotation
						JOINT lHand
						{
							OFFSET 8.370511 0.000000 0.000000 
							CHANNELS 3 Zrotation Yrotation Xrotation
							End Site
							{
								OFFSET 4.083176 0.000000 0.000000 
							}
						}
					}
				}
			}
			JOINT rCollar
			{
				OFFSET -3.470700 6.669187 -0.816635 
				CHANNELS 3 Yrotation Zrotation Xrotation
				JOINT rShldr
				{
					OFFSET -3.198488 0.000000 0.000000 
					CHANNELS 3 Zrotation Yrotation Xrotation
					JOINT rForeArm
					{
						OFFSET -10.139888 0.000000 0.000000 
						CHANNELS 3 Yrotation Zrotation Xrotation
						JOINT rHand
						{
							OFFSET -8.370511 0.000000 0.000000 
							CHANNELS 3 Zrotation Yrotation Xrotation
							End Site
							{
								OFFSET -4.083176 0.000000 0.000000 
							}
						}
					}
				}
			}
		}
	}
	JOINT lThigh
	{
		OFFSET 5.308129 -1.633274 1.361059 
		CHANNELS 3 Xrotation Zrotation Yrotation
		JOINT lShin
		{
			OFFSET -2.041588 -20.007561 0.000000 
			CHANNELS 3 Xrotation Zrotation Yrotation
			JOINT lFoot
			{
				OFFSET 0.000000 -19.190928 -1.224953 
				CHANNELS 3 Xrotation Yrotation Zrotation
				End Site
				{
					OFFSET 0.000000 -2.449906 4.627600 
				}
			}
		}
	}
	JOINT rThigh
	{
		OFFSET -5.308129 -1.633274 1.361059 
		CHANNELS 3 Xrotation Zrotation Yrotation
		JOINT rShin
		{
			OFFSET 2.041588 -20.007561 0.000000 
			CHANNELS 3 Xrotation Zrotation Yrotation
			JOINT rFoot
			{
				OFFSET 0.000000 -19.190928 -1.224953 
				CHANNELS 3 Xrotation Yrotation Zrotation
				End Site
				{
					OFFSET 0.000000 -2.449906 4.627600 
				}
			}
		}
	}
}
MOTION
Frames: 16
Frame Time: 0.033333
0.000000 29.115448 0.000000 0.000000 0.000000 0.000000 29.822811 -7.874106 -5.629282 -14.003906 9.003906 3.478091 10.545534 3.046592 0.486917 -10.751954 -3.134765 0.478516 2.000000 -2.000000 0.000000 -82.177734 -18.476563 -4.228516 -98.849251 1.845011 -6.573252 2.158790 3.630926 4.185420 -2.000000 2.000000 0.000000 74.404297 -2.431641 -54.424046 97.976601 4.650481 -15.608372 -2.501789 -1.736888 -2.515013 -73.570755 12.050051 -2.959642 65.269241 -3.306401 -2.126736 -10.712650 0.070658 0.023817 -73.920067 -22.547798 4.587750 59.724289 3.730284 1.483065 16.214436 0.178366 1.090422 
0.000000 30.793634 0.000000 0.000000 0.000000 0.000000 29.822811 -7.874106 -5.629282 -15.332031 9.082031 3.281250 8.485404 3.019657 0.570005 -14.091797 -3.115234 0.664062 2.000000 -2.000000 0.000000 -81.064453 -18.984375 -4.658203 -89.298317 0.755709 -6.463243 2.376776 13.367566 3.076355 -2.000000 2.000000 0.000000 74.404297 -2.431641 -54.424046 91.496254 6.372499 -14.854484 -2.589517 -7.254622 -0.207240 -73.570755 12.050051 -2.959642 65.269241 -3.306401 -2.126736 -19.159952 0.078641 0.057196 -73.920067 -22.547798 4.587750 59.724289 3.730283 1.483065 26.804722 0.433452 1.799317 
0.000000 32.287807 0.000000 0.000000 0.000000 0.000000 29.822811 -7.874106 -5.629282 -16.679688 9.150390 3.058193 6.444669 3.012033 0.650172 -17.392582 -3.066406 0.839844 2.000000 -2.000000 0.000000 -79.980469 -19.492189 -5.117188 -79.730362 -0.283635 -6.160446 2.379469 23.064848 1.946850 -2.000000 2.000000 0.000000 74.404297 -2.431641 -54.424046 85.005867 8.025068 -13.894711 -2.877822 -12.782519 2.203050 -73.570755 12.050051 -2.959642 65.269241 -3.306399 -2.126736 -27.636608 0.031618 0.113952 -73.920067 -22.547798 4.587750 59.724289 3.730284 1.483065 37.360943 0.871955 2.410799 
0.000000 33.546452 0.000000 0.000000 0.000000 0.000000 29.822811 -7.874106 -5.629282 -18.017580 9.218750 2.841797 4.394123 3.015524 0.738535 -20.771484 -3.007812 1.025391 2.000000 -2.000000 0.000000 -78.876953 -19.990234 -5.579508 -70.166489 -1.206877 -5.707429 2.163448 32.752060 0.654604 -2.000000 2.000000 0.000000 74.404297 -2.431641 -54.424046 78.421066 9.532844 -12.793357 -3.391902 -18.115751 4.608413 -73.570755 12.050051 -2.959642 65.269241 -3.306399 -2.126736 -35.976406 -0.048351 0.211330 -73.920067 -22.547798 4.587750 59.714500 3.730474 1.482257 47.859516 1.355530 2.982148 
0.000000 32.096439 0.000000 0.000000 0.000000 0.000000 29.822811 -7.874106 -5.629282 -16.679688 9.150390 3.058193 6.444669 3.012033 0.650172 -17.392582 -3.066406 0.839844 2.000000 -2.000000 0.000000 -79.980469 -19.492189 -5.117188 -79.730362 -0.283635 -6.160446 2.379469 23.064848 1.946850 -2.000000 2.000000 0.000000 74.404297 -2.431641 -54.424046 86.038391 7.778524 -14.045451 -3.531355 -19.405193 4.509169 -73.570755 12.050051 -2.959642 65.269241 -3.306401 -2.126736 -29.658010 0.059893 0.135755 -73.920067 -22.547798 4.587750 59.714500 3.730474 1.482257 35.956818 0.792993 2.344950 
0.000000 30.344646 0.000000 0.000000 0.000000 0.000000 29.822811 -7.874106 -5.629282 -15.332031 9.082031 3.281250 8.485404 3.019657 0.570005 -14.091797 -3.115234 0.664062 2.000000 -2.000000 0.000000 -81.064453 -18.984375 -4.658203 -89.298317 0.755709 -6.463243 2.376776 13.367566 3.076355 -2.000000 2.000000 0.000000 74.404297 -2.431641 -54.424046 93.647392 5.799196 -15.118943 -3.660777 -20.694624 4.420036 -73.570755 12.050051 -2.959642 65.269241 -3.306401 -2.126736 -23.339638 0.083326 0.075616 -73.920067 -22.547798 4.587750 59.714500 3.730475 1.482257 23.935078 0.358270 1.602189 
0.000000 28.622293 0.000000 0.000000 0.000000 0.000000 29.822811 -7.874106 -5.629282 -14.003906 9.003906 3.478091 10.545534 3.046592 0.486917 -10.751954 -3.134765 0.478516 2.000000 -2.000000 0.000000 -82.177734 -18.476563 -4.228516 -98.849251 1.845011 -6.573252 2.158790 3.630926 4.185420 -2.000000 2.000000 0.000000 74.404297 -2.431641 -54.424046 101.154190 3.765907 -15.908069 -3.789710 -21.984074 4.334377 -73.570755 12.050051 -2.959642 65.269241 -3.306401 -2.126736 -17.070086 0.082535 0.046317 -73.920067 -22.547798 4.587750 59.714500 3.730474 1.482257 11.939815 0.071260 0.832547 
0.000000 27.555023 0.000000 0.000000 0.000000 0.000000 29.822811 -7.874106 -5.629282 -12.675782 8.916017 3.691406 12.576447 3.062411 0.395634 -7.490236 -3.164063 0.302735 2.000000 -2.000000 0.000000 -83.251953 -17.978516 -3.789063 -108.422417 2.954436 -6.499113 1.788582 -6.086275 5.329393 -2.000000 2.000000 0.000000 74.404297 -2.431641 -54.424046 108.541565 1.623994 -16.484499 -3.908566 -23.293043 4.235860 -73.570755 12.050051 -2.959642 65.269241 -3.306399 -2.126736 -10.820251 0.034033 0.016727 -73.920067 -22.547798 4.587750 59.714500 3.730474 1.482257 0.033062 -0.036773 0.038284 
0.000000 28.622293 0.000000 0.000000 0.000000 0.000000 29.822811 -7.874106 -5.629282 -11.318359 8.837891 3.906250 14.617155 3.079690 0.314006 -4.130860 -3.173828 0.117187 2.000000 -2.000000 0.000000 -84.335938 -17.441406 -3.378906 -117.989471 3.995160 -6.255219 1.172983 -15.744825 6.614059 -2.000000 2.000000 0.000000 74.414063 -2.431641 -54.424046 104.309196 2.888102 -16.147758 -3.789710 -21.984074 4.334377 -73.570755 12.050051 -2.959642 65.269241 -3.306401 -2.126736 -2.518773 0.088521 -0.058984 -73.920067 -22.547798 4.587750 59.724289 3.730283 1.483065 11.938855 0.094344 0.868789 
0.000000 30.344646 0.000000 0.000000 0.000000 0.000000 29.822811 -7.874106 -5.629282 -9.990235 8.740234 4.101563 16.648121 3.098430 0.242035 -0.751954 -3.173828 -0.068359 2.000000 -2.000000 0.000000 -85.390625 -16.914064 -2.981357 -127.599518 4.977000 -5.842925 0.283593 -25.451670 8.064850 -2.000000 2.000000 0.000000 74.404297 -2.431641 -54.424046 99.721909 4.159435 -15.760730 -3.660777 -20.694624 4.420036 -73.570755 12.050051 -2.959642 65.269241 -3.306401 -2.126736 5.908166 0.073312 -0.109608 -73.920067 -22.547798 4.587750 59.724289 3.730281 1.483065 23.934439 0.374246 1.604669 
0.000000 32.096439 0.000000 0.000000 0.000000 0.000000 29.822811 -7.874106 -5.629282 -8.652343 8.642579 4.308108 18.688776 3.125365 0.158947 2.646484 -3.173828 -0.264213 2.000000 -2.000000 0.000000 -86.445313 -16.367188 -2.597656 -137.224167 5.908714 -5.282706 -0.984035 -35.088730 9.875154 -2.000000 2.000000 0.000000 74.404297 -2.431641 -54.433807 95.305061 5.356969 -15.269166 -3.531355 -19.405193 4.509169 -73.570755 12.050051 -2.959642 65.269241 -3.306401 -2.126736 14.335985 0.028332 -0.162619 -73.920067 -22.547798 4.587750 59.734436 3.730329 1.474327 35.937061 0.797627 2.336159 
0.000000 33.524372 0.000000 0.000000 0.000000 0.000000 29.822811 -7.874106 -5.629282 -7.324219 8.544922 4.501953 20.719603 3.163416 0.084054 5.820313 -3.144531 -0.430223 2.000000 -2.000000 0.000000 -87.490234 -15.830078 -2.216797 -146.863037 6.734161 -4.531450 -2.842024 -44.712498 12.211174 -2.000000 2.000000 0.000000 74.404297 -2.431641 -54.424046 90.741516 6.585080 -14.803540 -3.391902 -18.115751 4.608413 -73.570755 12.050051 -2.959642 65.269241 -3.306401 -2.126736 22.626987 0.012718 -0.162914 -73.920067 -22.547798 4.587750 59.724289 3.730284 1.483065 47.848820 1.373890 2.972598 
0.000000 32.096439 0.000000 0.000000 0.000000 0.000000 29.822811 -7.874106 -5.629282 -8.652343 8.642579 4.308108 18.688776 3.125365 0.158947 2.646484 -3.173828 -0.264213 2.000000 -2.000000 0.000000 -86.445313 -16.367188 -2.597656 -137.224167 5.908714 -5.282706 -0.984035 -35.088730 9.875154 -2.000000 2.000000 0.000000 74.404297 -2.431641 -54.424046 94.136757 5.663147 -15.135568 -3.513873 -18.877800 4.637263 -73.570755 12.050051 -2.959642 65.269241 -3.306401 -2.126736 16.377031 0.065532 -0.153747 -73.920067 -22.547798 4.587750 59.724289 3.730283 1.483065 36.025455 0.788538 2.343554 
0.000000 30.329926 0.000000 0.000000 0.000000 0.000000 29.822811 -7.874106 -5.629282 -9.990235 8.740234 4.101563 16.648121 3.098430 0.242035 -0.751954 -3.173828 -0.068359 2.000000 -2.000000 0.000000 -85.390625 -16.914064 -2.981357 -127.599518 4.977000 -5.842925 0.283593 -25.451670 8.064850 -2.000000 2.000000 0.000000 74.404297 -2.431641 -54.424046 97.622711 4.735805 -15.555243 -3.616483 -19.649572 4.670323 -73.570755 12.050051 -2.959642 65.269241 -3.306401 -2.126736 10.078111 0.086557 -0.127213 -73.920067 -22.547798 4.587750 59.724289 3.730283 1.483065 23.944559 0.364626 1.612766 
0.000000 29.343622 0.000000 0.000000 0.000000 0.000000 29.822811 -7.874106 -5.629282 -11.318359 8.837891 3.906250 14.617155 3.079690 0.314006 -4.130860 -3.173828 0.117187 2.000000 -2.000000 0.000000 -84.326172 -17.441406 -3.391598 -118.009041 3.985410 -6.254669 1.172983 -15.744825 6.614059 -2.000000 2.000000 0.000000 74.404297 -2.431641 -54.424046 101.073471 3.831247 -15.845538 -3.728412 -20.421385 4.699536 -73.570755 12.050051 -2.959642 65.269241 -3.306399 -2.126736 3.808448 0.083933 -0.115718 -73.920067 -22.547798 4.587750 59.724289 3.730283 1.483065 11.900048 0.090290 0.847759 
0.000000 28.600214 0.000000 0.000000 0.000000 0.000000 29.822811 -7.874106 -5.629282 -12.675782 8.916017 3.691406 12.576447 3.062411 0.395634 -7.490236 -3.164063 0.302735 2.000000 -2.000000 0.000000 -83.251953 -17.978516 -3.789063 -108.422699 2.963640 -6.509406 1.788582 -6.086275 5.329393 -2.000000 2.000000 0.000000 74.404297 -2.431641 -54.424046 104.322227 2.852982 -16.227661 -3.830611 -21.183413 4.713137 -73.570755 12.050051 -2.959642 65.269241 -3.306399 -2.126736 -2.460814 0.033331 -0.018128 -73.920067 -22.547798 4.587750 59.724289 3.730283 1.483065 0.036591 -0.030111 0.040807 
